<svg xmlns="http://www.w3.org/2000/svg" xmlns:xlink="http://www.w3.org/1999/xlink" width="336" height="521" fill="none" xmlns:v="https://vecta.io/nano"><style><![CDATA[.B{fill:#e1e1e6}.C{stroke:#263238}.D{stroke-linejoin:round}.E{fill:#61dcfb}.F{stroke-linecap:round}.G{fill:#263238}.H{stroke-width:.5}.I{fill-rule:evenodd}]]></style><use xlink:href="#B" class="B"/><path d="M256.505 248.6c12.025-6.542 11.602-13.93 8.816-24.897s-21.317-53.356-21.317-53.356l-2.998 1.904-.952 1.763s17.297 42.459 18.338 56.6c.705 9.504-18.426 21.353-31.069 28.124 9.381-2.486 22.147-6.312 29.182-10.138z" fill="#bbbbbf" style="mix-blend-mode:multiply" opacity=".5"/><use xlink:href="#B" class="C D"/><use xlink:href="#C" class="B"/><path d="M93.388 179.304l-.3-1.358-5.977-2.75s-13.7 50.199-14.106 59.068 27.207 26.361 28.212 27.419c.406.423.247-4.302-.088-10.139-8.217-6.965-20.013-16.768-21.388-20.894" fill="#bbbbbf" style="mix-blend-mode:multiply" opacity=".5"/><g class="C D"><use xlink:href="#C"/><path d="M151.451 124.767s-5.29 3.809-15.605 4.232-10.808-7.053-23.627-7.053c-15.534 0-35.018 49.141-35.018 49.141s9.698 9.504 19.202 13.507a68.13 68.13 0 0 0 16.451 4.849l1.481 32.285h104.631l1.251-32.285 32.709-21.212s-16.046-28.688-23.839-39.444-20.895-6.753-24.897-4.02-15.87 3.385-20.242 2.751a174.9 174.9 0 0 1-16.892-4.638s-6.736-5.607-15.605 1.887z" fill="#eba417"/></g><path d="M113.5 189.5l.953-53.5L102 186.3l11.5 3.2zm92.692 32.362V159c0-15.95-13.484-20.893-31.469-27.486-6.258-2.294-13.061-4.787-20.031-8.014l-.692-.137c7.833-5.105 13.547-.348 13.547-.348 5.55 1.827 11.187 3.375 16.892 4.637 4.373.635 16.239-.018 20.242-2.751s17.103-6.735 24.897 4.021 23.839 39.443 23.839 39.443l-32.708 21.212-1.252 32.285h-13.265z" fill="#bc8312" class="I"/><g class="C D"><path d="M113.912 136.158l-.423 53.585m4.214-48.719s1.481 26.149 7.053 40.713m.969 2.099c1.204 3.554 2.683 7.009 4.426 10.332m-9.081-56.106c2.002 9.508 4.828 18.824 8.446 27.841m82.503-23.204s-5.061 20.683-9.504 29.975m17.702 16.857l-.211-41.771m-2.098.846s-3.809 26.449-13.084 40.29m8.446-5.272s-4.231 8.023-7.176 12.237m-60.55-67.92s2.962 18.144 7.177 27.418 11.602 11.179 17.932 8.446 10.967-16.257 10.579-33.501" class="F H"/><use xlink:href="#D" class="B"/><use xlink:href="#D"/><use xlink:href="#E" class="B"/><use xlink:href="#E"/><path d="M149.547 123.304a227.11 227.11 0 0 0 7.599 26.572c3.809 9.486 10.968 9.486 13.93 3.367s4.849-28.917 4.849-28.917-19.837 2.768-26.378-1.022z" class="B"/></g><use xlink:href="#F" class="B"/><g class="C D"><use xlink:href="#F"/><path d="M166.439 102.409c-.654 4.119-1.008 8.279-1.058 12.449.211 4.214 1.481 5.483-.424 5.906s-4.002-2.539-4.002-2.539m-15.622-12.43a7.48 7.48 0 0 0 4.19 1.413c1.507.038 2.991-.381 4.255-1.202m18.356-.211a7.45 7.45 0 0 0 4.181 1.41c1.504.038 2.985-.38 4.247-1.199m-21.758-7.317s-4.02-9.927-17.298-5.29m28.353 4.073s3.368-9.715 15.393-4.02" class="F"/><path d="M161.36 106.517c0 5.431-6.224 9.822-13.912 9.822s-13.929-4.391-13.929-9.822 5.819-7.687 13.506-7.687 14.335 2.274 14.335 7.687zm32.074 0c0 5.431-6.242 9.822-13.93 9.822s-13.912-4.391-13.912-9.822 5.801-7.687 13.489-7.687 14.353 2.274 14.353 7.687z"/></g><path d="M180.862 36.605c2.098-.441 6.595-2.169 9.627-9.204a.87.87 0 0 0 .074-.337.86.86 0 0 0-.061-.34.87.87 0 0 0-.187-.29.88.88 0 0 0-.284-.196.9.9 0 0 0-1.164.459c-2.786 6.454-6.771 7.882-8.428 8.199a20.24 20.24 0 0 0 4.637-12.748C185.076 9.909 173.738 0 159.756 0s-25.32 9.909-25.32 22.146c.009 4.469 1.497 8.808 4.232 12.343-2.663-.141-7.159.988-12.854 7.635a.9.9 0 0 0 0 1.252c.163.136.369.211.581.212.129 0 .255-.028.371-.083a.86.86 0 0 0 .299-.234c7.283-8.481 12.096-7.053 13.066-6.665a25.95 25.95 0 0 0-4.602 3.227c-8.129 7.317-13.083 21.159-12.448 32.691.713 7.648 3.486 14.96 8.022 21.159 5.904-4.225 10.8-9.705 14.335-16.046 2.635-4.658 4.991-9.468 7.053-14.406 0 5.166.67 11.408 3.386 15.869 1.959 3.524 4.828 6.456 8.309 8.491s7.443 3.097 11.474 3.076c1.392.02 2.782-.116 4.144-.405.12-.03.232-.085.329-.161s.177-.171.235-.28c6.806 1.446 13.577 1.322 14.618-.123 1.675-2.31 4.055-9.522 4.848-18.338 1.446-14.952-7.969-27.93-18.972-34.753zm-23.345 41.419c-3.421-5.59-3.315-14.705-2.91-19.942l.23-.6c.162 5.386 1.535 10.666 4.017 15.45a35.89 35.89 0 0 0 10.318 12.18 25.83 25.83 0 0 0 7.811 3.65c-4.32.3-13.207-.529-19.466-10.738z" class="G"/><g class="D"><path d="M157.816 50.27s-1.445 10.685 12.131 21.159 26.449 6.348 26.449 6.348m-36.587-31.033s14.3 20.824 34.048 15.393m-41.119-22.323c-2.255-1.145-4.781-1.649-7.303-1.456s-4.942 1.075-6.997 2.549c-7.599 5.06-11.408 17.015-11.408 17.015m26.079-12.307s-6.154-1.64-9.963 2.169a24.55 24.55 0 0 0-4.708 5.801" stroke="#e1e1e6" class="F H"/><g class="B C"><path d="M23.926 269.854l-.901 191.417c0 .603.279 1.182.775 1.608s1.17.666 1.871.666c.684 0 1.342-.229 1.833-.639s.776-.968.795-1.556l6.359-191.227-10.733-.269zm-13.864 44.454l-.785 197.769a2.15 2.15 0 0 0 .179.872 2.25 2.25 0 0 0 .521.739c.224.211.49.379.783.492s.607.171.923.169a2.48 2.48 0 0 0 1.667-.632 2.22 2.22 0 0 0 .739-1.546l5.764-197.611-9.791-.252zm301.932-44.454l.82 191.417a2.15 2.15 0 0 1-.177.869c-.12.276-.296.527-.518.738a2.42 2.42 0 0 1-.778.494 2.53 2.53 0 0 1-.92.173c-.625 0-1.226-.228-1.675-.638s-.713-.968-.735-1.557l-5.773-191.227 9.756-.269zm13.75 44.454l.819 197.769c.002.299-.059.595-.179.872a2.25 2.25 0 0 1-.521.739c-.224.212-.49.379-.783.492a2.5 2.5 0 0 1-.923.169c-.619 0-1.215-.226-1.661-.633a2.2 2.2 0 0 1-.728-1.545l-5.781-197.611 9.757-.252zm-217.638 8.467l-.46 174.885a1.69 1.69 0 0 0 .341 1.224 1.71 1.71 0 0 0 1.101.647c.426-.059.815-.277 1.085-.61s.404-.755.372-1.182l3.436-174.759-5.875-.205z"/><use xlink:href="#G"/><use xlink:href="#G" x="-122.684"/><path d="M225.503 322.775l.573 174.885c.059.437-.084.875-.397 1.224s-.774.581-1.284.647c-.496-.062-.947-.281-1.262-.613s-.471-.753-.438-1.179l-4.009-174.759 6.817-.205z"/><path d="M165.706 336c42.224 0 76.452-7.773 76.452-17.362s-34.228-17.362-76.452-17.362-76.451 7.773-76.451 17.362S123.483 336 165.706 336zm-37.229 130.018s-4.003 5.702-1.134 8.536 5.721 1.707 5.429 4.558-4.862 12.514-8.865 22.757 4.295 20.486 12.026 17.652 6.872-31.309 8.006-36.431 2.01-5.975 1.718-10.806-.567-9.953-4.295-10.534-11.167 2.288-12.885 4.268z"/></g><path d="M140.761 511.668c-5.154-1.946-13.057-1.553-17.507-1.109 1.495 6.436 7.216 10.96 12.679 8.962 2.285-.836 3.78-3.875 4.828-7.853z" class="C E"/><path d="M119.612 453.505l10.583 17.635c2.285 3.687 10.033 2.561 10.892-2.561s-3.161-19.342-3.161-19.342l-17.18 4.268h-1.134z" class="B C"/><path d="M99.855 431.312s-2.302 3.704-1.151 6.265 4.295 9.953 6.305 13.657 11.167 5.976 21.75 4.268 16.613-6.555 16.905-10.823-1.718-9.953-3.161-16.782-5.154-6.538-10.308-6.538-26.045 5.975-30.34 9.953z" class="C E"/><path d="M130.779 347.66c.155-6.999 4.226-10.448 4.536-15.245.484-6.342-.043-12.72-1.564-18.899l-7.834-10.635-38.947.751c-.859.273-1.443 5.121-2.01 9.099 0 0-9.569 1.212-7.851 27.673.241 3.688 9.896 46.35 10.6 51.216 4.295 29.722 13.865 44.608 13.865 44.608s.859 3.705 12.026 2.851 22.334-8.245 22.334-8.245-5.738-57.857-5.154-83.174z" class="C G"/><path d="M104.425 313.516c7.541.386 15.024 1.53 22.334 3.415 9.741 2.851 26.921 8.536 30.924 8.536s2.869-14.802 2.869-17.635-51.54-4.559-57.845-4.559 1.718 10.243 1.718 10.243z" class="B C"/><path d="M160.552 307.832s-4.587 2.27-6.305 10.806-4.003 13.094-.567 15.365 18.332 3.977 20.616 1.707 8.591-13.658 9.742-21.05-23.486-6.828-23.486-6.828z" class="C E"/><path d="M180.018 310.665a35.62 35.62 0 0 0-6.288 10.243c-1.215 3.918-2.173 7.91-2.869 11.951a112.26 112.26 0 0 1 16.029 5.702c9.174 3.977 24.636 6.828 39.514 10.243s18.898 6.828 24.052 6.828 11.46-3.994 19.483-13.657 1.134-30.166-6.872-36.431-50.974-11.37-56.695-9.663-26.354 14.784-26.354 14.784z" class="C G"/><path d="M129.903 335.181s-5.91 62.841-17.971 72.623m13.796-12.975s-4.69 20.486-16.991 28.63m93.048-99.699s-18.331 1.143-6.305 9.099 33.793 13.094 33.793 13.094" stroke="#49606b" class="F H"/><g class="C"><path d="M334.863 306.466l-6.185-5.532-14.294-30.729c-.678-1.398-1.743-2.575-3.069-3.394a8.26 8.26 0 0 0-4.422-1.232H29.261a8.27 8.27 0 0 0-4.432 1.227 8.2 8.2 0 0 0-3.076 3.399L3.938 308.48 1 307.405v8.757l.137-.102a4.86 4.86 0 0 0 1.679 2.997 4.91 4.91 0 0 0 3.252 1.151h324.001c1.252.029 2.466-.427 3.386-1.271s1.474-2.01 1.545-3.253l-.137-9.218z" fill="#5e5e61"/><path d="M330.069 312.202H6.068c-.802.032-1.6-.14-2.317-.498s-1.332-.892-1.785-1.55-.731-1.421-.807-2.215.053-1.595.373-2.327l20.221-43.413a8.16 8.16 0 0 1 3.073-3.405c1.331-.82 2.87-1.244 4.435-1.222h277.631c1.563-.018 3.098.407 4.425 1.227a8.15 8.15 0 0 1 3.066 3.4l20.221 43.413a4.68 4.68 0 0 1 .373 2.327 4.69 4.69 0 0 1-.806 2.215c-.454.658-1.068 1.192-1.785 1.55a4.77 4.77 0 0 1-2.318.498z" class="B"/></g></g><path d="M22.475 283.043s-7.336 5.002-2.749 6.829 57.313.461 63.739-1.366 13.744-18.676 13.744-21.408-9.243-4.695-12.645-4.848-48.345 2.561-48.345 2.561l-13.744 18.232zm262.273 8.656c10.38 0 18.795-3.47 18.795-7.751s-8.415-7.751-18.795-7.751-18.795 3.471-18.795 7.751 8.415 7.751 18.795 7.751zm-119.66 9.577c37.223 0 67.398-5.61 67.398-12.531s-30.175-12.53-67.398-12.53-67.398 5.61-67.398 12.53 30.175 12.531 67.398 12.531z" style="mix-blend-mode:multiply" opacity=".5" fill="#a8a8a8"/><g class="C D"><g class="E"><path d="M271.004 253.458s-1.237-4.9-5.343-3.261-3.694 12.463-2.886 18.591 6.373 3.261 6.373 3.261v-3.67s-2.044 1.622-3.075-.615-.824-13.487.206-13.282 3.076 3.671 3.076 3.671.618-.393 1.649-4.695z"/><path d="M268.049 254.277v26.837c0 3.158 7.301 5.719 16.321 5.719s16.304-2.561 16.304-5.719v-26.837h-32.625z"/></g><g class="B"><path d="M300.674 254.277c0 2.732-7.302 4.934-16.304 4.934s-16.321-2.202-16.321-4.934 7.301-4.933 16.321-4.933 16.304 2.219 16.304 4.933z"/><path d="M298.543 254.277c0 2.373-6.356 4.285-14.173 4.285s-14.191-1.912-14.191-4.285 6.357-4.285 14.191-4.285 14.173 1.912 14.173 4.285z"/></g><path d="M273.426 257.009a39.27 39.27 0 0 0 21.871 0 39.27 39.27 0 0 0-21.871 0z" class="G"/><g class="B"><path d="M20.448 266.535l.206 9.184 62.278.615v-10.619l-62.484.82z"/><path d="M82.932 276.334l9.054-19.393v-5.719l-9.466 16.337.412 8.775z"/><path d="M20.448 274.9l.206 9.202 62.278.614v-10.618l-62.484.802z"/><path d="M82.932 284.716l9.054-19.41v-5.719l-9.466 16.337.412 8.792z"/></g><path d="M44.5 243.249s1.443-2.851-.618-4.08-4.312 1.707-5.549 2.646-27.128 17.976-27.952 20.64 0 8.536 5.549 9.184 10.48-3.056 12.954-3.67l3.436-.82 17.06-22.876-4.879-1.024z" class="E"/><path d="M15.93 271.656c5.549.615 10.48-3.055 12.954-3.67l3.436-.819.618-.837-16.029-3.244c-.871-.815-1.992-1.319-3.184-1.43s-2.387.176-3.396.816c-.773 2.629.052 8.553 5.601 9.184z" class="B"/><path d="M16.96 263.121h48.105c15.015 0 19.534-.82 19.534-.82l9.243-19.001s-29.206 1.844-38.226 1.229a68.27 68.27 0 0 1-11.098-1.229L16.96 263.121z" class="E"/><g class="B"><path d="M16.96 263.121l.825 3.67 49.324.205c10.274 0 18.091.41 18.091.41l-.618-5.122-67.621.837z"/><path d="M85.2 267.354l8.624-19.615v-4.49l-9.243 19.001.618 5.104z"/></g><path d="M223.947 290.299h-117.77a1.98 1.98 0 0 1-.761-.145 1.97 1.97 0 0 1-.647-.424c-.185-.183-.332-.4-.433-.639a1.96 1.96 0 0 1-.152-.755c0-.26.052-.516.152-.756a1.96 1.96 0 0 1 .433-.639 1.97 1.97 0 0 1 .647-.424 1.98 1.98 0 0 1 .761-.145h117.77c.26-.002.518.047.759.145s.459.242.643.425.33.4.428.64a1.93 1.93 0 0 1 .146.754c.002.258-.047.514-.146.754a1.94 1.94 0 0 1-.428.639c-.184.183-.402.327-.643.425s-.499.147-.759.145zm1.134-3.961h-119.78c-.438.001-.86-.165-1.18-.463a1.7 1.7 0 0 1-.538-1.142l-6.511-77.762c-.029-.24-.007-.484.066-.716s.195-.445.358-.625a1.73 1.73 0 0 1 .585-.424c.223-.098.465-.148.709-.147h132.82a1.74 1.74 0 0 1 .708.147 1.71 1.71 0 0 1 .586.424c.162.18.284.394.357.625s.096.476.067.716l-6.512 77.762a1.7 1.7 0 0 1-.544 1.148 1.73 1.73 0 0 1-1.191.457z" fill="#161e22"/></g><path d="M293.407 186.298a10.14 10.14 0 0 0 3.659-5.685 10.44 10.44 0 0 0-.12-5.122m-17.249 71.685s11.425-6.829 7.697-14.631-16.339-12.974-16.339-25.13c0-10.482 11.219-14.357 18.538-18.557m.653 58.096s6.373-4.217 6.373-10.909c0-4.49-4.827-7.426-11.201-14.648m-3.521-4.37s-4.177-3.261-1.1-9.39" stroke="#6c7d85" class="F D"/><path d="M177.213 241.296c5.413 1.637 8.944 4.276 8.944 7.061 0 2.776-3.513 5.415-8.892 7.051 1.258 5.433.711 9.76-1.727 11.148-.572.326-1.232.48-1.961.48-2.385 0-5.509-1.662-8.666-4.559-3.158 2.914-6.282 4.593-8.667 4.593-.729 0-1.389-.154-1.952-.48-2.447-1.388-3.002-5.723-1.753-11.173-5.413-1.637-8.944-4.276-8.944-7.06 0-2.777 3.513-5.407 8.909-7.052-1.258-5.433-.711-9.76 1.727-11.148.572-.325 1.232-.48 1.961-.48v-.008c2.385 0 5.509 1.662 8.666 4.558 3.158-2.913 6.282-4.592 8.667-4.592v.008c.717.001 1.373.156 1.935.48 2.447 1.388 3.002 5.724 1.753 11.173zm-3.696-9.751c-1.805.005-4.455 1.427-7.279 4.019 1.223 1.259 2.438 2.699 3.609 4.284 1.952.206 3.809.523 5.509.934.191-.865.347-1.714.442-2.519.4-3.273-.112-5.818-1.292-6.486-.269-.146-.59-.223-.989-.223v-.009zm-10.038 4.027c-2.828-2.579-5.492-3.992-7.287-3.992v.008c-.4 0-.738.069-.998.223-1.171.677-1.675 3.222-1.267 6.495.104.797.252 1.628.451 2.485 1.701-.42 3.557-.737 5.518-.943a40.62 40.62 0 0 1 3.583-4.276zm10.211 10.454c.451-1.14.85-2.279 1.171-3.385a39.29 39.29 0 0 0-3.557-.676c.426.651.851 1.319 1.25 2.005.408.685.781 1.37 1.136 2.056zm-4.893 9.014a45.72 45.72 0 0 0 2.091-3.273c.651-1.123 1.249-2.271 1.796-3.419a44.31 44.31 0 0 0-1.805-3.41c-.676-1.148-1.379-2.237-2.099-3.256-1.284-.103-2.594-.163-3.904-.163-1.319 0-2.629.06-3.922.171a45.59 45.59 0 0 0-2.09 3.273c-.651 1.123-1.258 2.271-1.796 3.419a44.5 44.5 0 0 0 1.804 3.411 47.43 47.43 0 0 0 2.1 3.256c1.284.102 2.594.162 3.904.162 1.319 0 2.629-.06 3.921-.171zm6.091-.977a36.34 36.34 0 0 0-1.198-3.41 47.31 47.31 0 0 1-1.128 2.065 47.43 47.43 0 0 1-1.249 2.031c1.241-.18 2.438-.412 3.575-.686zm-12.407 2.991a35.57 35.57 0 0 0 2.412 2.741c.798-.822 1.605-1.739 2.386-2.741-.789.042-1.596.06-2.412.06-.807 0-1.605-.026-2.386-.06zm-7.599-2.982c1.136.274 2.325.497 3.557.677-.426-.652-.842-1.32-1.25-2.005s-.781-1.371-1.136-2.057c-.451 1.14-.85 2.279-1.171 3.385zm12.38-14.412c-.799-1.003-1.605-1.92-2.412-2.742-.798.822-1.605 1.739-2.386 2.742a44.45 44.45 0 0 1 2.412-.06 53.28 53.28 0 0 1 2.386.06zm-10.081 4.335a46.78 46.78 0 0 1 1.249-2.03c-1.241.179-2.438.411-3.575.676.33 1.114.729 2.262 1.198 3.411a46.5 46.5 0 0 1 1.128-2.057zm-11.66 4.362c0 1.345 1.986 3.041 5.057 4.335.755.317 1.571.609 2.43.874.485-1.671 1.127-3.41 1.926-5.192-.807-1.791-1.458-3.539-1.952-5.218-.842.265-1.657.548-2.404.865-3.071 1.285-5.057 2.99-5.057 4.336zm8.432 10.093c-.399 3.273.113 5.818 1.293 6.487.26.145.59.222.98.231 1.805 0 4.46-1.422 7.288-4.019-1.223-1.259-2.438-2.699-3.609-4.284-1.952-.206-3.809-.523-5.509-.934a26.22 26.22 0 0 0-.443 2.519zm20.605 6.452c1.171-.677 1.674-3.221 1.266-6.495-.095-.796-.251-1.628-.451-2.493-1.7.42-3.557.737-5.517.942-1.154 1.586-2.369 3.017-3.583 4.276 2.828 2.579 5.491 3.993 7.287 3.993.399 0 .738-.069.998-.223zm2.203-11.344c.842-.266 1.657-.549 2.404-.866 3.071-1.285 5.057-2.99 5.066-4.335 0-1.346-1.987-3.042-5.058-4.336a27.81 27.81 0 0 0-2.438-.874c-.485 1.671-1.127 3.41-1.926 5.192.807 1.791 1.458 3.539 1.952 5.219zm-7.929-5.201c0 2.162-1.775 3.915-3.965 3.915s-3.965-1.753-3.965-3.915 1.775-3.916 3.965-3.916 3.965 1.753 3.965 3.916z" class="E I"/><defs ><path id="B" d="M222.598 184.047s18.778 40.079 18.778 42.195-16.662 11.179-19.836 13.083c-2.462 1.402-4.999 2.668-7.6 3.791l1.905 18.567s28.688-6.542 40.713-13.083 11.602-13.93 8.816-24.897-21.317-53.356-21.317-53.356l-21.459 13.7z"/><path id="C" d="M87.11 175.196s-13.7 50.199-14.106 59.068 27.207 26.361 28.212 27.419-1.569-30.504-1.569-30.504l9.363-45.845-21.9-10.138z"/><path id="D" d="M130.574 89.961s-4.02-6.947-7.176-3.368 2.539 11.814 5.695 14.547 5.484 1.058 5.29-1.887-3.809-9.292-3.809-9.292z"/><path id="E" d="M194.386 89.961s4.003-6.947 7.176-3.368-2.539 11.814-5.695 14.547-5.501 1.058-5.29-1.887 3.809-9.292 3.809-9.292z"/><path id="F" d="M130.997 92.288s5.484 19.396 15.87 30.804 14.106 14.106 19.625 13.277 11.39-8.005 19.607-22.922 8.816-26.36 9.504-27.418-1.764-22.146-13.507-31.227-24.897-13.066-36.287-3.156-18.62 26.078-14.812 40.643z"/><path id="G" d="M228.75 316.425l.504 154.001c.043.373-.084.745-.355 1.04s-.664.491-1.099.546c-.434-.055-.826-.251-1.094-.547s-.39-.668-.342-1.039l-3.448-153.874 5.834-.127z"/></defs></svg>